<svg xmlns="http://www.w3.org/2000/svg" viewBox="0 0 19.15 20" role="img" aria-label="Прикрепить файл">
  <title>Прикрепить файл</title>
  <g fill="none" fill-rule="evenodd" stroke-linecap="round" stroke-linejoin="round" stroke-width="1.5px">
    <path stroke="#808080" d="m12,5l-6,6c-.59.5-.99,1.95,0,3,.91.97,2.29.61,3,0,.26-.22,7.59-7.58,7.59-7.58,1.14-1.3,1.28-4.25-1.59-5.42-.94-.52-2.99-.23-4,1L2,11c-1.23,1.55-1.56,3.28-.77,5.23.28.7.73,1.35,1.44,1.93,2.21,1.36,4.32,1.27,6.32-.16,4-4,5-5,9.34-9.36"/>
  </g>
</svg>