<?xml version="1.0" encoding="utf-8"?>
<!-- Generator: Adobe Illustrator 27.5.0, SVG Export Plug-In . SVG Version: 6.00 Build 0)  -->
<svg version="1.1" id="Слой_1" xmlns="http://www.w3.org/2000/svg" xmlns:xlink="http://www.w3.org/1999/xlink" x="0px" y="0px"
	 viewBox="0 0 27.2 22.1" style="enable-background:new 0 0 27.2 22.1;" xml:space="preserve">
<style type="text/css">
	.st0{fill:none;stroke:#262626;stroke-width:2;stroke-linecap:round;stroke-linejoin:round;}
	.st1{fill:none;stroke:#808080;stroke-width:2;stroke-linecap:round;stroke-linejoin:round;}
</style>
<g>
	<path class="st0" d="M5.8,8.1H2.4C1.6,8.1,1,8.8,1,9.6v2.9c0,0.8,0.6,1.4,1.4,1.4h3.4l6.7,6.7V1.4C12.6,1.4,5.8,8.1,5.8,8.1z"/>
	<path class="st1" d="M16.7,7.8c1.1,0.8,2,2,2,3.4s-0.9,2.6-2,3.4"/>
	<path class="st0" d="M19,4.2c1.9,1.6,3.5,4.2,3.5,6.9c0,2.7-1.5,5.3-3.5,6.9"/>
	<path class="st1" d="M21.2,1c2.8,2.3,5,6.2,5,10.1c0,3.9-2.2,7.8-5,10.1"/>
</g>
</svg>
