<?xml version="1.0" encoding="UTF-8"?>
<svg id="_Слой_1" data-name="Слой 1" xmlns="http://www.w3.org/2000/svg" viewBox="0 0 497.5 425.94">
  <defs>
    <style>
      .cls-1 {
        fill: #b3b3b3;
      }
    </style>
  </defs>
  <path class="cls-1" d="m429,404.5s11,3.5,7.5,14.5c0,0-3.5,10-13.5,5.5,0,0-162.5-51.67-347,1.16,0,0-10.5,2.34-14-6.66,0,0-3.5-10,6-14.5,0,0,177-60.5,361,0Z"/>
  <path class="cls-1" d="m429,378.5s-.5,12,0,18.5c0,0-158-57.5-358.5,0,0,0,1-12,0-18,0,0,167-56,358.5-.5Z"/>
  <path class="cls-1" d="m497.5,262s-21,12.5-68.5,111c0,0-164.5-56-358.5,0,0,0-45-98.5-70.5-111,0,0,48,0,50.5,45,0,0,6.5-28.5,22-1,0,0,8,12.5,6.5,28.5,0,0-8.76-37.5-17.63-6,0,0,.63,26.42,21.13,25.46,0,0,0,17.96,21.5,0,0,0,21.5,5.54,19-14.46,0,0,3,.5,7.5-6,0,0-2.5-14-14.5-19,0,0-23.5-4.5-8,17,0,0-26-8-25-36.5,0,0,3-24,30-7,0,0-9.25-13.37-16.5-18,0,0-.5-7.5,4-19.5,0,0,2.46-4.33,5-13,0,0,11,6,13.5,7.5,0,0,12.5,4,17,12,0,0-5,19-2,31.5,0,0,6.5-26.5,28-18.5,0,0,22.5,8.5,4,43,0,0-7.5-19-16-7.75,0,0-5,7.75,0,27.25,0,0,4,2,9,1.5,0,0,6,27,37.5,1.5,0,0,35,13.5,30-4,0,0,5-.5,7-5,0,0,2-9.5-5.5-21.25,0,0-17-17.75-14.5,14.75,0,0-34-26-10.5-50,0,0,22-19,42,18.5,0,0-2.96-17.46-15-37.5,0,0-1.5-7.5,9.5-18,0,0,9.17-8.5,10.58-11.5,0,0,4.92,7,7.92,9.5,0,0,13,12.5,12,18.5,0,0-12.5,25.5-14,35.5,0,0,12.5-28,36.5-18.5,0,0,32.51,19.52-6.5,53.5,0,0,1-33-13.5-15,0,0-5,8.5-4.5,22.5,0,0,1,3,4.5,2.5,0,0-5,22.5,30.5,4.5,0,0,30.5,27,38.5-1.5,0,0,4.5,0,8.5-2,0,0,5.5-11,0-25,0,0-10-14-15.5,5.5,0,0-22.5-29,4.5-41.5,0,0,18.5-7,26,16,0,0,2.76-15.93-1-30.5,0,0,7.5-7.5,17-11.5,0,0,8-3,12-6,0,0,4,8.5,6,11.5,0,0,6,10.5,4,20.5,0,0-16.5,14.5-17.5,20,0,0,19.5-17,28.5-1,0,0,10.5,28.5-21.5,42,0,0,11.5-19.5-5.5-18,0,0-14,3.5-16.5,22,0,0,1.5,2,6,4.5,0,0-2.5,18.92,20,14.46,0,0,14,17.46,20.5,0,0,0,15.88,2.54,20.19-21.46,0,0-3.18-35.52-16.19-.5,0,0,0-19,8-30,0,0,15-21.5,20.5,6.5,0,0-.5-44.5,48-46.5Z"/>
  <path class="cls-1" d="m21.5,259s-16.5-94.5,161-121c0,0,46-5.5,60-16.5,0,0,4-5-10.5-10,0,0,21.69-7.27,4-27-13-14.5-11.5,11-11.5,11,0,0-18-10.5-10.5-30s14.5-12,14-13.5,4,5.07,8.5-.22c0,0-10.99-10.28,6.51-21.28l6.99-30.5,6,29.5s18,10.5,7.5,22c0,0,3.83,5.67,9,1,0,0,9.5-1.5,12.5,9.5,0,0,10,23.5-11,33.5,0,0,2.5-27.5-10.5-10.5,0,0-13.5,14.5,3.5,27,0,0-13,4-9,9,0,0,23,14,67.5,17.5,0,0,157.5,19,153.5,120.5,0,0-12,2-22,11,0,0,28.5-85.5-111-113,0,0,87,34,65.5,113,0,0-.5-29.5-16-42.5,0,0-13.5-1-35.5,21.5,0,0,6.5-46-42-71.5,0,0-39-28-53-39,0,0,29,84.5,11.5,113,0,0,3-13.5-9.5-24.5,0,0-7.33-7.5-16.92-14.5,0,0-14.08,10-16.58,13,0,0-11.5,8.5-10.5,26,0,0-19-33.5,13.5-112,0,0-35.5,24.5-48.5,31.5,0,0-60,35.5-48.5,79.5,0,0-17-20.5-36-22.5,0,0-9.5,5.5-15,42,0,0-28.5-66.5,64.5-111.5,0,0-137,21.5-109.5,111.5,0,0-7.5-9-22-11Z"/>
</svg>